<svg id="visual" viewBox="0 0 900 600" width="900" height="600" xmlns="http://www.w3.org/2000/svg" xmlns:xlink="http://www.w3.org/1999/xlink" version="1.1"><rect x="0" y="0" width="900" height="600" fill="#1c0e57"></rect><path d="M0 403L30 423.2C60 443.3 120 483.7 180 466.8C240 450 300 376 360 314.5C420 253 480 204 540 211.3C600 218.7 660 282.3 720 310.8C780 339.3 840 332.7 870 329.3L900 326L900 601L870 601C840 601 780 601 720 601C660 601 600 601 540 601C480 601 420 601 360 601C300 601 240 601 180 601C120 601 60 601 30 601L0 601Z" fill="#301891" stroke-linecap="round" stroke-linejoin="miter"></path></svg>